# xmcd CD database file
#
# Track frame offsets:
#	150
#	12073
#	37646
#	49428
#	63521
#	72355
#	81076
#	93363
#	99658
#	123251
#	137845
#	147432
#	178016
#	192476
#	219152
#	257286
#	272960
#	280921
#
# Disc length: 3944 seconds
#
# Revision: 8
# Processed by: cddbd v1.5.2PL0 Copyright (c) Steve Scherf et al.
# Submitted via: CDex 1.51
#
DISCID=050f6612
DTITLE=Liszt - L'Oeuvre pour Piano - France Clidat  [CD 13-14]
DYEAR=1974
DGENRE=Piano
TTITLE0=Weihnachtsbaum, S.186 - N°01 - Vieux Noël  (Allegro non troppo)  ...  { L'Arbre de Noël }  [rec.1970]
TTITLE1=Weihnachtsbaum, S.186 - N°02 - La Nuit Sainte  (Lento)
TTITLE2=Weihnachtsbaum, S.186 - N°03 - Les Bergers à la crèche  (Allegretto Pastorale) ''In dulce jubilo''
TTITLE3=Weihnachtsbaum, S.186 - N°04 - Marche des Rois Mages  (Tempo di marcia moderato) ''Adeste Fideles''
TTITLE4=Weihnachtsbaum, S.186 - N°05 - En allumant les bougies de l'Arbre de Noël  (Presto)
TTITLE5=Weihnachtsbaum, S.186 - N°06 - Carillon  (Molto Vivace)
TTITLE6=Weihnachtsbaum, S.186 - N°07 - Berceuse  (Andante)
TTITLE7=Weihnachtsbaum, S.186 - N°08 - Noël provençal  (Allegro giocoso)
TTITLE8=Weihnachtsbaum, S.186 - N°09 - Cloches du soir  (Andantino affetuoso)
TTITLE9=Weihnachtsbaum, S.186 - N°10 - Jadis  (Andante)
TTITLE10=Weihnachtsbaum, S.186 - N°11 - Hongroise  (Maestoso, Tempo di marcia)
TTITLE11=Weihnachtsbaum, S.186 - N°12 - Â la polonaise  (Andante)
TTITLE12=Nuages gris  (Trübe Wolken), S.199       [rec.1974]
TTITLE13=La lugubre gondole I, S.200-1
TTITLE14=La lugubre gondole II, S.200-2
TTITLE15=Richard Wagner - Venezia, S.201
TTITLE16=Trauervorspiel, S.206-1   (Prélude funèbre)
TTITLE17=Abschied. Russisches Volkslied, S.251  (Adieu)
EXTD=YEAR: 1974
EXTT0=
EXTT1=
EXTT2=
EXTT3=
EXTT4=
EXTT5=
EXTT6=
EXTT7=
EXTT8=
EXTT9=
EXTT10=
EXTT11=
EXTT12=
EXTT13=
EXTT14=
EXTT15=
EXTT16=
EXTT17=
PLAYORDER=
